<?xml version="1.0" standalone="no"?>
<!DOCTYPE svg PUBLIC "-//W3C//DTD SVG 20010904//EN"
 "http://www.w3.org/TR/2001/REC-SVG-20010904/DTD/svg10.dtd">
<svg version="1.0" xmlns="http://www.w3.org/2000/svg"
 width="1044.000000pt" height="1044.000000pt" viewBox="0 0 1044.000000 1044.000000"
 preserveAspectRatio="xMidYMid meet">
<metadata>
Created by potrace 1.14, written by Peter Selinger 2001-2017
</metadata>
<g transform="translate(0.000000,1044.000000) scale(0.100000,-0.100000)"
fill="#000000" stroke="none">
<path d="M4698 8529 c-2 -5 -86 -11 -188 -14 -102 -3 -264 -7 -360 -10 -96 -3
-257 -6 -357 -7 -99 -2 -180 -5 -178 -8 2 -3 -79 -5 -178 -4 -100 0 -190 -4
-201 -9 -14 -7 -16 -6 -11 4 5 8 4 10 -4 5 -24 -16 -391 -28 -391 -13 0 4 -10
2 -22 -4 -16 -9 -92 -13 -250 -13 -126 0 -228 -3 -228 -6 0 -3 -73 -6 -163 -7
-475 -6 -585 -8 -582 -13 2 -3 -49 -5 -112 -4 -80 0 -119 -4 -128 -12 -7 -7
-15 -11 -18 -8 -3 3 -28 -6 -56 -20 -28 -15 -51 -23 -51 -19 0 5 -5 0 -11 -9
-5 -10 -17 -18 -25 -18 -8 0 -13 -4 -10 -8 3 -5 -5 -15 -18 -22 -26 -13 -53
-60 -35 -60 6 0 7 -4 4 -10 -3 -5 0 -10 8 -10 8 0 20 -7 27 -15 7 -8 16 -12
21 -9 5 3 9 1 9 -4 0 -11 99 -44 111 -36 5 3 9 2 9 -3 0 -9 198 -11 215 -3 6
3 83 5 172 5 88 0 160 2 158 5 -4 7 405 15 430 9 6 -1 17 1 25 4 15 6 224 14
559 20 123 2 167 0 176 -10 13 -12 12 -68 -1 -188 -2 -22 -6 -68 -7 -102 -1
-35 -5 -63 -8 -63 -3 0 -6 -26 -6 -57 0 -31 -4 -58 -9 -60 -5 -2 -9 -27 -9
-57 0 -30 -3 -53 -6 -50 -4 2 -6 -15 -4 -38 2 -24 0 -47 -3 -53 -4 -5 -8 -35
-9 -65 -2 -54 -4 -75 -18 -230 -4 -41 -11 -78 -17 -81 -7 -4 -7 -9 0 -13 8 -4
8 -16 0 -37 -5 -16 -8 -38 -5 -49 3 -11 2 -20 -2 -20 -4 0 -8 -15 -8 -32 0
-18 -3 -67 -7 -108 -5 -41 -9 -96 -9 -122 -1 -27 -4 -48 -8 -48 -5 0 -7 -23
-12 -164 -1 -30 -5 -52 -9 -49 -9 5 -9 8 -13 -77 -4 -59 -7 -97 -20 -215 -2
-22 -6 -64 -9 -93 -2 -29 -9 -59 -15 -66 -6 -7 -8 -16 -4 -19 9 -10 8 -71 -2
-87 -8 -12 -14 -83 -18 -197 -1 -29 -4 -53 -7 -53 -3 0 -6 -19 -7 -42 -1 -24
-4 -61 -7 -83 -2 -22 -7 -67 -10 -99 -3 -33 -10 -62 -14 -65 -4 -3 -8 -33 -8
-66 -1 -59 -8 -147 -19 -235 -3 -25 -7 -70 -9 -100 -7 -100 -18 -185 -25 -190
-11 -9 -12 -30 -1 -30 12 0 9 -22 -4 -31 -5 -4 -10 -35 -12 -70 -6 -99 -11
-164 -14 -164 -1 0 -3 -25 -5 -56 -1 -30 -4 -60 -7 -65 -2 -5 -6 -27 -7 -49
-3 -47 -7 -78 -16 -120 -7 -30 -10 -56 -20 -165 -5 -52 -10 -102 -19 -181 -6
-57 -40 -179 -49 -179 -4 0 -6 -4 -2 -10 3 -5 -3 -18 -14 -29 -11 -11 -17 -21
-15 -24 13 -13 -111 -91 -128 -81 -4 3 -8 1 -8 -4 0 -9 -47 -27 -62 -24 -5 1
-8 -2 -8 -7 0 -5 -11 -8 -25 -6 -14 1 -28 -2 -31 -7 -3 -5 -12 -7 -20 -4 -7 3
-16 1 -20 -5 -3 -6 -12 -8 -19 -5 -7 2 -16 -2 -19 -10 -3 -8 -9 -13 -13 -12
-4 1 -24 -5 -44 -14 -20 -9 -46 -19 -58 -23 -12 -4 -20 -9 -17 -12 3 -3 -17
-17 -44 -30 -28 -14 -50 -29 -50 -34 0 -5 -7 -9 -16 -9 -8 0 -12 -4 -9 -10 3
-5 -1 -10 -9 -10 -8 0 -22 -10 -30 -22 -9 -12 -16 -18 -16 -13 0 6 -5 2 -11
-8 -6 -9 -16 -14 -22 -11 -7 4 -9 4 -5 -1 4 -4 -9 -27 -30 -49 -20 -23 -48
-55 -62 -73 -13 -17 -29 -29 -34 -26 -5 3 -6 1 -3 -4 4 -6 0 -16 -8 -23 -8 -7
-12 -16 -9 -21 3 -5 -2 -12 -10 -15 -9 -3 -14 -10 -11 -14 3 -4 -2 -11 -11
-14 -8 -3 -13 -10 -10 -15 3 -5 -1 -14 -9 -21 -8 -7 -12 -16 -9 -21 3 -5 1 -9
-4 -9 -6 0 -16 -20 -23 -45 -7 -25 -17 -45 -22 -45 -4 0 -6 -4 -2 -10 3 -5 -1
-24 -8 -42 -8 -18 -13 -41 -11 -51 1 -9 -2 -17 -8 -17 -6 0 -8 -7 -4 -15 3 -8
0 -15 -6 -15 -9 0 -9 -3 0 -12 8 -8 8 -17 0 -31 -12 -24 -17 -187 -5 -187 5 0
5 -9 2 -20 -3 -11 -2 -20 3 -20 6 0 10 -12 11 -27 1 -54 2 -63 11 -63 5 0 7
-12 4 -26 -3 -16 -1 -23 6 -19 6 3 7 0 4 -9 -3 -9 -2 -16 3 -16 5 0 15 -16 22
-35 7 -19 16 -35 21 -35 5 0 7 -6 4 -14 -3 -7 2 -16 10 -19 9 -4 16 -13 16
-22 0 -8 5 -15 10 -15 6 0 10 -6 10 -13 0 -7 18 -26 39 -43 22 -16 38 -31 36
-34 -4 -6 115 -87 135 -92 7 -2 24 -13 37 -25 14 -12 31 -19 38 -17 7 3 16 0
20 -5 3 -6 11 -9 16 -6 5 4 9 1 9 -6 0 -7 3 -9 7 -6 3 4 11 3 17 -2 10 -8 51
-17 116 -26 14 -2 31 2 37 7 16 13 119 14 153 2 31 -11 63 -11 71 -2 3 5 17 9
32 10 15 1 27 6 27 11 0 4 4 6 9 3 5 -3 22 1 38 9 17 8 42 16 57 17 15 1 32 8
38 15 6 7 16 13 22 13 6 0 23 8 36 17 14 10 31 18 38 20 8 1 22 9 33 19 10 9
19 13 19 9 0 -5 9 1 20 13 12 12 24 22 29 22 4 0 17 8 29 17 54 47 62 52 62
45 1 -4 6 3 13 15 7 12 16 22 20 22 4 0 26 22 49 48 48 57 54 63 43 44 -5 -9
-4 -12 3 -7 7 4 12 14 12 22 0 20 25 45 36 36 5 -4 6 -3 1 2 -4 5 3 21 15 34
13 14 17 22 10 18 -11 -7 -11 -4 -1 12 7 12 16 19 21 16 4 -3 10 7 14 21 3 14
11 22 17 18 6 -3 7 -1 3 6 -4 6 0 18 8 27 9 8 16 24 16 35 0 11 6 22 14 25 8
3 13 13 11 22 -1 9 7 30 18 46 13 18 15 26 6 21 -12 -8 -12 -6 0 8 7 9 10 17
6 17 -4 0 -2 6 4 14 6 8 11 18 10 22 -2 9 6 36 20 64 3 8 7 38 6 67 0 28 2 50
5 48 3 -2 4 33 3 78 -5 147 -19 247 -35 247 -5 0 -8 6 -5 13 2 6 -3 18 -12 25
-13 11 -13 12 -1 6 11 -6 10 -2 -3 13 -9 11 -14 23 -10 26 3 4 -1 7 -10 7 -9
0 -19 5 -23 12 -5 7 -2 8 7 3 8 -4 -4 8 -26 29 -22 20 -37 36 -33 36 5 0 -13
21 -39 48 -26 26 -51 46 -55 45 -4 -2 -7 0 -6 5 4 14 -23 53 -33 47 -5 -4 -8
-3 -7 2 3 9 -2 16 -67 88 -25 27 -45 54 -45 58 0 5 -5 5 -10 2 -6 -4 -10 -3
-9 2 1 4 1 10 0 13 -7 19 -6 92 1 96 4 3 6 16 4 30 -3 13 -1 24 3 24 4 0 8 6
8 13 1 18 37 151 43 157 3 3 7 14 8 25 5 25 12 32 37 37 22 3 79 -35 68 -45
-3 -4 6 -11 19 -16 14 -5 34 -20 44 -33 11 -13 38 -40 61 -60 23 -20 39 -39
36 -41 -2 -3 4 -8 15 -11 10 -4 24 -18 30 -31 6 -14 16 -25 21 -25 15 0 61
-45 61 -60 0 -7 7 -10 16 -6 8 3 13 2 10 -3 -3 -5 1 -12 10 -15 8 -3 13 -10
10 -15 -3 -5 7 -15 23 -22 27 -14 31 -18 31 -40 0 -5 4 -8 8 -5 5 3 14 -4 22
-14 8 -10 17 -17 22 -14 5 3 8 2 7 -3 -3 -12 12 -43 21 -43 11 0 70 -56 70
-67 0 -5 11 -16 25 -23 14 -7 25 -19 25 -26 0 -7 9 -15 19 -19 11 -3 23 -15
26 -26 4 -10 10 -19 15 -19 5 0 33 -18 62 -40 29 -22 59 -38 66 -35 7 3 11 1
8 -4 -8 -12 65 -40 149 -59 48 -10 435 -3 435 8 0 3 24 5 54 5 30 0 52 3 50 6
-2 4 6 7 19 8 12 0 33 2 47 4 14 2 33 0 42 -5 10 -5 18 -3 20 4 2 6 25 11 53
11 28 0 54 2 60 5 5 3 26 7 47 8 21 2 61 5 90 9 29 3 80 8 113 11 85 6 125 11
165 19 46 9 114 16 167 16 24 1 41 4 38 9 -2 4 9 6 25 5 17 -1 30 0 30 4 0 3
15 6 33 7 32 1 152 10 237 19 25 2 56 7 70 11 24 7 80 12 183 17 26 1 47 4 47
7 0 7 13 8 100 12 36 1 68 6 71 11 4 5 31 9 60 9 30 1 58 3 63 6 5 3 37 7 70
9 96 6 151 11 151 13 0 3 46 7 160 14 39 2 70 5 70 6 0 7 217 31 303 33 28 1
52 4 52 7 0 3 28 6 63 7 125 5 234 17 245 28 2 2 18 -1 35 -6 21 -6 33 -5 38
2 4 7 55 11 132 12 150 2 159 -3 164 -85 1 -29 5 -105 8 -168 7 -139 12 -203
15 -210 2 -3 4 -9 5 -15 7 -43 18 -75 26 -75 6 0 7 -5 4 -10 -3 -5 -3 -16 2
-22 4 -7 8 -17 9 -23 4 -24 9 -40 14 -45 3 -3 16 -26 29 -53 13 -26 28 -47 33
-47 5 0 7 -4 4 -9 -6 -9 11 -32 78 -104 21 -23 35 -35 32 -27 -4 8 1 5 10 -8
9 -12 22 -22 30 -22 7 0 19 -7 28 -15 8 -8 23 -16 33 -18 17 -4 28 -8 71 -24
9 -3 27 -7 40 -8 13 0 26 -5 30 -10 9 -12 243 -12 292 0 19 5 41 8 49 6 7 -1
20 1 30 5 9 4 24 8 34 9 9 2 19 4 22 5 3 1 14 4 25 5 11 1 21 3 23 5 1 1 9 3
17 5 35 7 117 38 139 52 18 11 22 12 16 2 -6 -10 -2 -9 11 2 10 8 38 24 61 35
24 10 43 22 43 27 0 4 6 7 13 7 8 0 22 9 32 20 10 11 21 17 26 14 4 -2 13 5
19 16 7 13 18 19 26 16 8 -3 14 -2 14 3 0 15 63 70 73 64 6 -3 7 -2 4 4 -3 5
3 15 13 23 10 8 16 18 13 22 -3 5 3 8 13 6 10 -2 19 3 19 9 0 7 12 27 28 45
15 18 37 44 48 58 12 14 27 37 35 53 8 15 19 27 24 27 6 0 9 4 8 8 -4 10 34
84 46 93 5 4 6 14 3 22 -3 9 0 21 8 27 7 6 14 19 14 28 1 40 7 68 16 78 12 13
12 145 0 164 -5 8 -8 27 -7 42 1 15 -2 28 -8 28 -5 0 -7 6 -4 14 3 8 1 17 -5
20 -6 4 -8 13 -5 20 3 8 0 17 -5 21 -6 3 -9 10 -6 15 3 5 -4 29 -17 52 -12 24
-23 45 -23 48 -1 3 -9 21 -17 40 -9 19 -14 38 -12 42 3 5 0 8 -5 8 -6 0 -11 6
-11 14 0 8 -7 17 -16 20 -8 3 -13 10 -9 15 3 5 1 12 -5 16 -5 3 -10 15 -10 26
0 11 -4 17 -10 14 -5 -3 -10 0 -10 8 0 8 -7 18 -16 21 -9 4 -14 9 -11 12 3 4
1 12 -6 19 -7 6 -21 23 -31 38 -11 14 -23 24 -28 21 -4 -3 -8 0 -8 5 0 16 -42
61 -57 61 -8 0 -16 7 -19 15 -4 8 -10 15 -15 15 -5 0 -27 11 -49 25 -22 14
-40 22 -40 19 0 -4 -8 0 -17 7 -15 12 -16 12 -8 -1 8 -13 7 -13 -8 -1 -9 7
-17 10 -17 6 0 -4 -6 -3 -12 2 -16 12 -195 15 -202 4 -3 -5 -18 -7 -33 -5 -15
1 -32 0 -38 -4 -12 -8 -33 -13 -57 -15 -10 -1 -18 -5 -18 -9 0 -4 -3 -7 -7 -6
-5 1 -21 -4 -38 -11 -16 -7 -31 -12 -33 -12 -1 1 -15 -5 -31 -13 -16 -9 -31
-12 -35 -9 -3 4 -6 2 -6 -3 0 -6 -17 -16 -37 -23 -21 -8 -41 -18 -45 -24 -6
-9 -17 -13 -65 -19 -7 -1 -13 -5 -13 -10 0 -4 -7 -8 -15 -8 -8 0 -15 -5 -15
-11 0 -5 -4 -8 -9 -5 -5 3 -14 -1 -21 -9 -7 -8 -16 -13 -20 -10 -5 3 -11 1
-15 -5 -3 -5 -13 -10 -21 -10 -8 0 -24 -9 -36 -20 -12 -10 -25 -17 -30 -14 -4
3 -8 0 -8 -7 0 -7 -3 -9 -7 -6 -3 4 -12 2 -20 -4 -7 -6 -13 -8 -13 -3 0 5 -4
4 -8 -1 -9 -13 -112 -68 -112 -60 0 3 -9 -3 -21 -14 -12 -11 -28 -17 -37 -14
-10 4 -13 2 -8 -5 5 -8 2 -10 -8 -6 -9 3 -16 2 -16 -3 0 -6 -12 -9 -27 -8 -24
1 -28 6 -29 31 0 16 2 34 5 39 3 6 6 12 7 15 3 15 19 46 26 51 5 3 10 12 12
20 1 8 12 29 24 48 11 19 18 39 15 44 -3 6 -1 7 4 4 6 -4 16 0 23 8 7 8 9 15
6 15 -4 0 4 12 18 27 14 15 23 30 20 35 -3 4 -2 8 3 8 12 0 83 67 77 73 -3 2
7 8 21 11 14 4 23 11 20 16 -3 6 0 10 8 10 7 0 23 9 35 20 12 12 22 17 22 13
0 -4 5 0 11 10 6 9 14 15 20 12 5 -4 9 -1 9 4 0 6 7 11 15 11 9 0 18 6 21 13
2 7 14 14 26 14 12 1 24 7 28 14 4 6 12 9 18 5 6 -3 13 -2 17 4 4 6 11 8 16 5
5 -4 9 -1 9 4 0 6 9 11 20 11 11 0 20 4 20 10 0 5 7 6 17 3 10 -4 14 -2 9 5
-4 7 0 10 13 7 10 -2 31 3 46 11 15 8 31 11 36 8 5 -3 9 -1 9 4 0 5 10 13 23
17 12 4 25 8 30 10 18 6 22 7 30 6 4 0 7 4 7 11 0 6 3 8 6 5 4 -4 19 2 34 13
16 11 33 20 39 20 6 0 11 5 11 12 0 6 3 8 6 5 9 -9 61 30 81 59 14 23 14 26
-2 44 -10 11 -21 17 -25 15 -4 -3 -13 2 -20 10 -7 8 -21 15 -32 15 -10 0 -16
4 -13 10 4 6 -2 7 -18 1 -16 -6 -28 -6 -35 1 -14 14 -123 17 -141 4 -11 -9
-13 -8 -7 2 7 12 4 12 -15 1 -13 -7 -36 -12 -51 -11 -16 1 -28 -1 -28 -6 0 -7
-17 -11 -62 -13 -10 0 -20 -4 -23 -10 -4 -5 -13 -9 -21 -9 -8 0 -30 -7 -50
-15 -19 -8 -37 -14 -39 -15 -3 0 -21 -9 -42 -20 -20 -10 -40 -17 -45 -14 -4 3
-8 0 -8 -6 0 -6 -4 -9 -9 -5 -6 3 -13 -1 -18 -8 -4 -7 -15 -16 -23 -20 -8 -4
-26 -15 -40 -24 -18 -14 -22 -14 -16 -3 5 8 -1 6 -12 -5 -33 -31 -51 -46 -55
-43 -1 2 -14 -7 -27 -20 -14 -13 -44 -38 -67 -55 -23 -18 -43 -37 -43 -44 0
-6 -9 -15 -20 -18 -11 -3 -20 -10 -20 -15 0 -5 -16 -25 -35 -44 -19 -20 -35
-40 -35 -45 0 -5 -9 -12 -20 -16 -11 -3 -19 -9 -17 -13 3 -11 -49 -92 -56 -87
-4 3 -5 2 -3 -1 5 -6 -49 -113 -85 -169 -10 -16 -24 -40 -30 -52 -7 -13 -16
-23 -21 -23 -4 0 -8 -4 -8 -10 0 -10 -34 -48 -47 -52 -5 -2 -7 -7 -5 -11 1 -5
-3 -5 -9 -1 -6 3 -14 2 -18 -3 -9 -14 -77 -43 -100 -43 -12 0 -21 -3 -21 -7 0
-5 -15 -9 -33 -10 -17 -2 -57 -5 -87 -8 -30 -3 -84 -8 -120 -10 -60 -5 -105
-11 -105 -15 0 -2 -57 -7 -270 -24 -38 -3 -97 -9 -130 -12 -33 -3 -82 -6 -110
-7 -27 -1 -52 -5 -55 -9 -3 -4 -35 -10 -70 -12 -36 -3 -83 -8 -105 -11 -22 -2
-62 -7 -90 -9 -27 -2 -50 -5 -50 -6 0 -1 -18 -4 -40 -6 -93 -8 -181 -15 -197
-15 -10 0 -18 -3 -18 -7 0 -4 -11 -7 -25 -7 -14 0 -25 4 -25 8 0 4 -10 2 -22
-4 -13 -7 -43 -14 -68 -15 -25 -2 -74 -6 -110 -9 -36 -4 -86 -7 -112 -8 -26
-1 -45 -4 -43 -7 2 -3 -25 -6 -58 -6 -34 -1 -75 -5 -92 -8 -29 -6 -101 -14
-195 -22 -25 -2 -65 -6 -90 -9 -86 -9 -175 -16 -207 -17 -18 -1 -33 -4 -33 -8
0 -4 -13 -6 -30 -5 -16 1 -30 -2 -30 -7 0 -5 -10 -4 -21 3 -14 7 -24 8 -28 1
-3 -6 -38 -13 -76 -17 -39 -4 -86 -9 -105 -11 -132 -15 -240 -21 -240 -13 0 4
-17 7 -37 7 -43 0 -69 5 -79 15 -4 4 -16 7 -26 7 -10 0 -18 5 -18 11 0 5 -4 8
-9 4 -5 -3 -12 -1 -16 5 -3 5 -15 10 -26 10 -10 0 -19 5 -19 11 0 5 -4 7 -10
4 -5 -3 -10 -1 -10 4 0 6 -8 11 -19 11 -10 0 -30 9 -44 20 -14 11 -32 20 -40
20 -8 0 -18 7 -21 16 -3 8 -10 12 -16 9 -5 -3 -10 -1 -10 4 0 6 -7 11 -15 11
-8 0 -15 4 -15 10 0 5 -3 9 -7 8 -9 -3 -65 32 -75 47 -4 5 -8 6 -8 1 0 -5 -8
1 -19 12 -10 12 -24 22 -30 22 -6 0 -14 7 -17 15 -4 8 -11 15 -18 15 -6 0 -47
35 -91 77 -44 43 -84 77 -88 75 -5 -1 -7 2 -5 8 2 7 -13 30 -34 52 -21 23 -38
48 -38 55 0 8 -4 12 -9 8 -5 -3 -12 4 -16 15 -3 11 -11 20 -17 20 -6 0 -9 3
-5 6 3 4 -1 13 -9 21 -8 8 -11 19 -8 25 4 6 2 8 -4 4 -6 -3 -13 3 -17 14 -4
12 -11 17 -18 14 -7 -4 -9 -4 -5 1 4 4 -5 31 -19 59 -15 28 -26 54 -25 59 1 4
-3 7 -8 7 -6 0 -10 5 -10 10 0 6 -9 29 -19 53 -23 50 -36 89 -33 100 1 4 -3 7
-9 7 -6 0 -8 9 -4 20 3 11 2 20 -2 20 -5 0 -15 21 -23 48 -7 26 -14 49 -15 52
-6 17 -17 84 -20 112 -1 18 -5 40 -8 48 -4 8 -5 52 -4 98 2 45 0 82 -4 82 -3
0 -4 12 -2 28 2 15 5 70 7 122 2 52 6 106 10 120 3 14 8 54 11 90 7 74 8 88
20 150 5 25 8 48 7 53 -1 4 1 7 6 7 4 0 7 18 7 39 0 22 3 37 8 34 4 -2 5 8 3
23 -3 15 -2 32 1 37 4 6 8 25 9 43 1 18 5 38 9 45 6 8 4 10 -4 4 -10 -6 -11
-3 -3 11 5 11 12 42 15 69 3 28 9 73 13 100 4 28 7 60 8 73 1 12 5 22 10 22 4
0 5 11 2 25 -4 14 -4 31 0 37 4 6 9 34 10 62 8 115 13 172 18 196 3 14 9 54
12 90 4 36 8 81 11 100 2 19 5 63 6 98 1 34 5 62 8 62 4 0 5 21 4 48 -1 26 0
52 4 57 3 6 7 30 7 55 1 25 5 81 9 125 4 44 7 88 7 98 -1 9 2 16 6 13 4 -2 7
28 7 67 -1 40 1 76 4 81 2 6 6 42 8 80 5 98 12 202 18 256 2 25 7 83 9 130 3
47 10 86 15 88 6 2 7 13 3 25 -9 26 -8 68 3 93 4 11 9 57 11 104 3 47 6 97 7
111 3 31 25 61 39 53 5 -3 14 -2 21 3 7 5 49 9 95 9 45 -1 82 1 82 5 0 3 24 5
53 4 28 -1 56 1 62 4 14 8 135 8 172 0 18 -4 34 -2 35 3 2 5 74 11 163 13 88
1 160 4 160 4 0 1 88 4 195 7 107 2 249 7 315 9 66 3 193 6 282 7 89 1 160 5
157 9 -3 5 16 15 46 23 3 0 19 13 35 29 16 15 33 27 38 27 4 0 6 4 2 9 -3 5 2
17 11 25 16 17 14 24 -22 62 -15 17 -94 56 -94 47 0 -5 -7 0 -14 10 -8 10 -16
15 -19 10 -6 -9 -373 -8 -419 0 -15 3 -28 1 -30 -4z m4187 -4529 c8 -7 15 -9
15 -4 0 4 5 3 11 -3 6 -6 18 -9 25 -6 8 3 14 0 14 -7 0 -7 7 -10 16 -6 9 3 21
3 27 -1 7 -4 14 -8 17 -9 20 -4 60 -26 84 -47 17 -14 34 -24 38 -21 5 3 7 1 6
-4 -2 -5 10 -24 25 -41 15 -17 25 -36 22 -40 -2 -5 2 -11 10 -15 8 -3 15 -12
15 -21 0 -8 4 -15 8 -15 8 0 12 -23 12 -67 0 -13 4 -23 8 -23 5 0 7 -42 5 -92
-5 -138 -7 -158 -14 -158 -6 0 -23 -58 -20 -72 0 -5 -4 -8 -10 -8 -5 0 -8 -4
-4 -9 3 -5 1 -12 -5 -16 -6 -4 -8 -10 -5 -15 3 -4 -2 -11 -11 -14 -8 -3 -13
-10 -10 -15 4 -5 3 -11 -1 -13 -5 -1 -21 -23 -38 -47 -37 -55 -155 -181 -170
-181 -5 0 -15 -8 -22 -19 -6 -10 -32 -29 -57 -41 -25 -12 -46 -26 -46 -31 0
-6 -5 -7 -11 -4 -5 4 -19 -1 -30 -11 -10 -9 -19 -13 -19 -8 0 5 -4 4 -8 -2 -4
-7 -18 -14 -32 -15 -14 -2 -27 -7 -30 -11 -3 -4 -23 -10 -44 -12 -21 -3 -43
-9 -50 -14 -6 -4 -23 -8 -38 -7 -16 0 -28 -2 -28 -5 0 -3 -48 -4 -107 -3 -140
5 -153 6 -153 16 0 5 -4 6 -9 2 -5 -3 -12 -1 -16 5 -4 6 -11 8 -16 5 -5 -4 -9
-1 -9 5 0 6 -4 8 -10 5 -5 -3 -10 -1 -10 5 0 6 -4 8 -10 5 -5 -3 -10 -2 -10 4
0 5 -9 13 -20 16 -11 3 -20 12 -20 20 0 7 -6 15 -14 18 -16 6 -67 94 -69 120
-1 9 -4 17 -8 17 -3 0 -9 18 -13 40 -3 22 -10 40 -14 40 -4 0 -7 16 -7 35 1
19 -1 35 -4 35 -7 0 -7 82 0 95 3 6 6 26 8 45 1 19 5 37 9 40 7 5 13 22 16 56
4 31 55 134 67 134 6 0 8 4 4 9 -3 5 -1 12 5 16 6 4 7 11 4 17 -4 7 -2 8 4 4
7 -4 12 -3 12 3 0 5 15 24 33 42 17 18 25 29 17 25 -8 -5 2 6 23 24 20 17 34
36 31 42 -4 6 -3 8 2 5 5 -3 30 12 54 34 25 21 53 41 63 45 9 3 17 10 17 15 0
6 5 7 10 4 6 -3 10 -2 10 2 0 5 22 17 49 28 28 10 48 22 45 26 -2 4 4 6 13 4
10 -1 23 0 28 4 15 8 37 13 63 13 12 0 22 5 22 10 0 5 15 8 34 5 19 -3 38 -1
43 4 24 24 152 31 178 9z m-6169 -681 c25 -10 72 -17 147 -20 10 0 15 -5 11
-11 -5 -7 -2 -9 8 -6 16 7 29 -11 64 -82 36 -74 42 -96 47 -155 1 -16 6 -33
12 -37 11 -8 9 -179 -2 -187 -4 -3 -9 -19 -10 -36 -3 -51 -9 -79 -22 -102 -6
-13 -9 -23 -5 -23 4 0 -2 -10 -14 -22 -11 -13 -22 -27 -23 -33 -4 -22 -25 -61
-44 -83 -11 -13 -20 -27 -20 -32 0 -5 -26 -33 -57 -64 -32 -30 -58 -60 -58
-66 0 -5 -3 -9 -7 -8 -12 4 -54 -28 -48 -35 3 -4 2 -5 -1 -2 -4 2 -23 -8 -42
-23 -20 -15 -33 -20 -28 -12 5 11 4 11 -6 -1 -17 -21 -116 -71 -127 -64 -5 2
-14 -2 -21 -10 -6 -7 -18 -11 -26 -8 -8 3 -14 1 -14 -4 0 -5 -6 -10 -12 -10
-7 0 -26 -4 -43 -8 -16 -4 -41 -9 -55 -10 -14 -1 -36 -5 -50 -9 -48 -11 -85
-13 -130 -4 -25 5 -58 12 -75 15 -16 3 -33 10 -37 16 -4 6 -10 8 -14 5 -3 -4
-23 4 -44 17 -21 13 -41 21 -44 18 -3 -4 -6 1 -6 11 0 9 -4 14 -10 11 -5 -3
-10 -2 -10 2 0 5 -10 19 -23 33 -48 53 -80 123 -81 180 -1 14 -4 30 -7 35 -9
13 -4 200 6 240 8 37 35 93 55 119 11 14 11 17 1 11 -15 -8 13 38 41 69 10 11
20 28 24 38 3 10 10 18 15 18 5 0 13 8 16 17 8 20 82 93 95 93 5 0 6 5 3 10
-3 6 -1 10 5 10 6 0 22 11 35 25 14 13 25 22 25 19 0 -3 12 4 26 15 15 11 31
18 37 14 6 -4 8 0 4 10 -3 9 -3 16 1 16 4 -1 10 0 15 1 4 1 10 3 15 5 51 14
62 19 62 27 0 5 4 7 9 3 5 -3 15 0 23 7 13 13 21 15 56 21 9 1 22 6 28 9 6 4
21 6 32 3 12 -2 24 0 27 4 2 5 23 7 45 6 23 -2 40 2 40 8 0 6 3 8 6 5 3 -3 17
-3 32 1 46 13 117 12 148 0z"/>
</g>
</svg>
